<?xml version="1.0" encoding="UTF-8"?>
<!DOCTYPE svg PUBLIC "-//W3C//DTD SVG 1.1//EN" "http://www.w3.org/Graphics/SVG/1.1/DTD/svg11.dtd">
<!-- Creator: CorelDRAW 2017 -->
<svg xmlns="http://www.w3.org/2000/svg" xml:space="preserve" width="12.6998mm" height="12.6998mm" version="1.1" style="shape-rendering:geometricPrecision; text-rendering:geometricPrecision; image-rendering:optimizeQuality; fill-rule:evenodd; clip-rule:evenodd"
viewBox="0 0 1269.98 1269.98"
 xmlns:xlink="http://www.w3.org/1999/xlink">
 <defs>
  <style type="text/css">
   <![CDATA[
    .fil0 {fill:#242424}
    .fil1 {fill:#14DBAD;fill-rule:nonzero}
   ]]>
  </style>
 </defs>
 <g id="Capa_x0020_1">
  <metadata id="CorelCorpID_0Corel-Layer"/>
  <circle class="fil0" cx="634.99" cy="634.99" r="635"/>
  <path class="fil1" d="M925.88 1038.8l-121.35 0c-25.23,14.57 -52.49,26 -81.26,33.73 -28.16,7.58 -57.76,11.62 -88.29,11.62 -45.97,0 -89.85,-9.16 -129.89,-25.74 -41.59,-17.23 -79.01,-42.46 -110.3,-73.74 -31.28,-31.29 -56.51,-68.71 -73.74,-110.3 -16.58,-40.04 -25.74,-83.93 -25.74,-129.91 0,-45.93 9.15,-89.76 25.72,-129.78 17.23,-41.57 42.46,-79.02 73.76,-110.4 27.54,-27.55 59.82,-50.39 95.52,-67.22 33.63,-15.85 70.31,-26.35 108.88,-30.4 -0.12,-2.1 -0.12,-4.22 0.04,-6.34 0.24,-3.22 0.83,-6.49 1.77,-9.74 0.27,-0.91 1.42,-4.77 3.49,-10.58l1.86 -5.09c-12.24,4.32 -25.57,8.21 -39.73,11.17 -17,3.55 -35.19,5.77 -54.13,5.77 -6.5,0 -13.1,-0.26 -19.79,-0.81 -6.64,-0.55 -13.39,-1.41 -20.23,-2.58 -33.55,-5.82 -64.58,-18.74 -92.87,-38.61 -28.19,-19.81 -53.68,-46.56 -76.23,-80.08 -3.68,-5.44 -6.13,-11.55 -7.28,-17.9 -1.16,-6.35 -1.01,-12.94 0.5,-19.32 1.52,-6.4 4.36,-12.35 8.24,-17.5 3.88,-5.14 8.81,-9.49 14.55,-12.71 51.99,-29.17 99.47,-41.74 141.42,-44.18 55.27,-3.22 100.91,11.13 134.67,28.2 20.68,10.47 38.25,22.56 52.61,34.23 12.81,10.4 23.07,20.47 30.75,28.76 11.17,-13.82 23.77,-27.75 37.94,-41.32 15.14,-14.52 32.09,-28.62 50.98,-41.73l0.31 -0.21c10.69,-7.4 23.38,-9.77 35.24,-7.61 11.75,2.14 22.7,8.72 30.1,19.24l0.23 0.31c7.4,10.69 9.77,23.38 7.62,35.24 -2.16,11.87 -8.85,22.93 -19.55,30.34 -32.05,22.18 -57.06,48.38 -76.21,73.6 -30.32,39.93 -45.94,77.39 -51.57,92.69 33.93,5.95 66.16,16.95 95.86,32.21 31.66,16.26 60.45,37.34 85.39,62.26 31.32,31.34 56.55,68.75 73.77,110.3 16.57,40.02 25.73,83.86 25.73,129.79 0,30.54 -4.05,60.17 -11.62,88.35 -7.74,28.78 -19.17,56.05 -33.75,81.28l0 124.71 -3.42 0zm-358.48 -760.15c-5.4,-3.35 -11.17,-6.58 -17.29,-9.54 -21.09,-10.23 -43.04,-15.86 -65.74,-16.91 -21.03,-0.97 -42.74,1.99 -65.06,8.86 9.8,8.63 20.03,15.75 30.65,21.32 12.14,6.37 24.84,10.74 38.05,13.08 15.61,2.77 31.06,2.65 45.67,0.74 15.77,-2.05 30.61,-6.17 43.66,-10.95 -3.15,-2.22 -6.47,-4.44 -9.94,-6.6zm2.89 224.38c-16.36,4.38 -32.29,10.25 -47.41,17.5 -14.47,6.94 -28.23,15.16 -40.95,24.55 -2.67,23.37 -1.97,42.59 4.68,52.45 6.16,9.15 18.52,9.69 39.81,-3.27 2.84,-2.04 100.29,-71.68 227.06,-68.15 -24.71,-14.57 -52.34,-24.49 -81.58,-29 -32.44,-5.02 -66.9,-3.38 -101.61,5.92zm242.08 65.46l-4.93 -0.79c-29.08,-4.71 -67.58,-10.93 -119.83,3.06 -39.72,10.65 -72.03,32.12 -107.97,56 -14.79,9.82 -30.2,20.06 -47.1,30.2 -22.88,14.61 -38.33,29.16 -51.53,41.61 -16.82,15.85 -30.15,28.41 -50.77,33.93 -11.66,3.12 -21.48,-0.42 -29.74,-6.58 -5.61,-4.18 -10.44,-9.55 -14.6,-14.77 -2.48,14.73 -3.53,30.18 -3.05,45.81 0.54,17.69 3.06,35.62 7.72,53.01 3.2,11.95 7.15,23.67 11.73,34.77 4.39,10.64 9.38,20.75 14.88,29.99 25.06,18.03 53.19,30.53 82.88,27.96 29.96,-2.59 61.78,-20.56 94.1,-63.69l0.04 -0.05c0.42,-0.54 144.8,-186.43 250.5,-227.38 -3.6,-7.13 -8.23,-13.99 -13.4,-20.7 -5.83,-7.58 -12.37,-14.98 -18.93,-22.38zm-127.32 305.88c-31.46,52.28 -66.39,77.08 -97.66,88.32 -22.34,8.02 -42.74,9.12 -58.71,8.36 8.95,4.28 18.36,8.06 28.1,11.26 14.81,4.86 30.39,8.39 46.29,10.32 41.66,-9.63 84.29,-24.25 120.26,-47.28 35.88,-22.97 65.18,-54.36 80.29,-97.57 1.1,-4.16 36.89,-137.35 79.93,-102.27 -0.2,-8.46 -0.9,-17.17 -2.07,-25.99 -1.58,-11.89 -4.03,-24.01 -7.23,-35.96l-6.2 -23.13c-27.41,11.64 -56.57,38.79 -86.6,75.27 -31.57,38.35 -64.01,86.92 -96.4,138.67z"/>
 </g>
</svg>
