<?xml version="1.0" encoding="UTF-8"?>
<!DOCTYPE svg PUBLIC "-//W3C//DTD SVG 1.1//EN" "http://www.w3.org/Graphics/SVG/1.1/DTD/svg11.dtd">
<!-- Creator: CorelDRAW 2017 -->
<svg xmlns="http://www.w3.org/2000/svg" xml:space="preserve" width="7.6198mm" height="7.6198mm" version="1.1" style="shape-rendering:geometricPrecision; text-rendering:geometricPrecision; image-rendering:optimizeQuality; fill-rule:evenodd; clip-rule:evenodd"
viewBox="0 0 761.98 761.98"
 xmlns:xlink="http://www.w3.org/1999/xlink">
 <defs>
  <style type="text/css">
   <![CDATA[
    .fil0 {fill:#4D4D4D}
    .fil1 {fill:#0BDAA8;fill-rule:nonzero}
   ]]>
  </style>
 </defs>
 <g id="Capa_x0020_1">
  <metadata id="CorelCorpID_0Corel-Layer"/>
  <g id="_2353491057200">
   <circle class="fil0" cx="380.99" cy="380.99" r="299.65"/>
   <g>
    <path class="fil1" d="M517.96 462.99l-13.69 0 0 -59.35c0,-5.94 -3.66,-10.96 -9.14,-12.79l0 -14.61c0,-2.74 -1.82,-4.57 -4.56,-4.57l-18.27 0c-2.73,0 -4.56,1.83 -4.56,4.57l0 14.61c-5.48,1.83 -9.13,6.85 -9.13,12.79l0 59.35 -9.13 0 0 -59.35c0,-5.94 -3.66,-10.96 -9.13,-12.79l0 -14.61c0,-2.74 -1.83,-4.57 -4.57,-4.57l-4.57 0 0 -13.69 9.14 0 0 -9.14 -9.14 0 0 -13.69c0,-2.74 -1.82,-4.57 -4.56,-4.57l-36.53 0c-2.74,0 -4.56,1.83 -4.56,4.57l0 13.69 -9.14 0 0 9.14 9.14 0 0 63.92 -45.66 -25.57 -2.74 -29.22 7.3 0 0 -9.13 -7.76 0 -1.37 -18.27 9.13 0 0 -9.13 -10.04 0 -1.37 -18.26 11.41 0 0 -9.13 -12.32 0 -1.38 -14.16c0,-2.28 -2.28,-4.11 -4.56,-4.11l-36.53 0c-2.28,0 -4.11,1.83 -4.56,4.11l-1.38 14.16 -12.32 0 0 9.13 11.41 0 -1.83 18.26 -9.58 0 0 9.13 8.67 0 -1.82 18.27 -6.85 0 0 9.13 5.93 0 -0.91 9.13 -32.42 0c-2.74,0 -4.56,1.83 -4.56,4.57l0 136.97c0,2.74 1.82,4.57 4.56,4.57l73.06 0c2.74,0 4.56,-1.83 4.56,-4.57l0 -136.97c0,-2.74 -1.82,-4.57 -4.56,-4.57l-31.51 0 0.92 -9.13 41.54 0 2.74 31.96 0 118.71c0,2.74 1.83,4.57 4.57,4.57l182.63 0c2.74,0 4.57,-1.83 4.57,-4.57l0 -50.22c0,-2.74 -1.83,-4.57 -4.57,-4.57zm-260.25 50.22l-9.13 0 0 -127.84 9.13 0 0 127.84zm54.79 0l-45.66 0 0 -109.57 45.66 0 0 109.57zm0 -127.84l0 9.13 -45.66 0 0 -9.13 45.66 0zm-18.72 -91.32l28.31 0 0.91 9.14 -29.68 0 0.46 -9.14zm-1.82 18.27l31.5 0 1.37 18.26 -34.7 0 1.83 -18.26zm-4.57 45.66l1.83 -18.27 36.52 0 1.37 18.27 -39.72 0zm189.48 22.83l9.14 0 0 9.13 -9.14 0 0 -9.13zm-9.13 22.83c0,-2.74 1.83,-4.57 4.56,-4.57l18.27 0c2.74,0 4.56,1.83 4.56,4.57l0 4.56 -27.39 0 0 -4.56zm0 13.69l27.39 0 0 45.66 -27.39 0 0 -45.66zm-31.96 -18.26c2.74,0 4.57,1.83 4.57,4.57l0 4.56 -27.4 0 0 -4.56c0,-2.74 1.83,-4.57 4.57,-4.57l18.26 0zm-15.98 41.55l-6.85 -3.65 0 -19.64 27.4 0 0 45.66 -18.27 0 0 -18.26c0,-1.83 -0.91,-3.2 -2.28,-4.11zm11.41 -59.81l0 9.13 -9.13 0 0 -9.13 9.13 0zm-36.52 -41.1l27.39 0 0 9.13 -27.39 0 0 -9.13zm0 18.27l27.39 0 0 13.69 -4.56 0c-2.74,0 -4.57,1.83 -4.57,4.57l0 14.61c-5.48,1.83 -9.13,6.85 -9.13,12.79l0 28.3 -9.13 -5.02 0 -68.94zm-45.66 155.23l-9.13 0 0 -106.38 9.13 5.02 0 101.36zm27.39 -45.65l0 45.65 -18.26 0 0 -96.33 54.79 30.59 0 15.52 -31.96 0c-2.74,0 -4.57,1.83 -4.57,4.57zm118.71 45.65l-109.57 0 0 -22.82 109.57 0 0 22.82zm18.27 0l-9.13 0 0 -22.82 9.13 0 0 22.82zm0 -31.95l-127.84 0 0 -9.14 127.84 0 0 9.14z"/>
    <polygon class="fil1" points="275.97,421.9 285.11,421.9 285.11,412.77 275.97,412.77 "/>
    <polygon class="fil1" points="294.24,421.9 303.37,421.9 303.37,412.77 294.24,412.77 "/>
    <polygon class="fil1" points="275.97,440.16 285.11,440.16 285.11,431.03 275.97,431.03 "/>
    <polygon class="fil1" points="294.24,440.16 303.37,440.16 303.37,431.03 294.24,431.03 "/>
    <polygon class="fil1" points="275.97,458.43 285.11,458.43 285.11,449.29 275.97,449.29 "/>
    <polygon class="fil1" points="294.24,458.43 303.37,458.43 303.37,449.29 294.24,449.29 "/>
    <polygon class="fil1" points="275.97,476.69 285.11,476.69 285.11,467.56 275.97,467.56 "/>
    <polygon class="fil1" points="294.24,476.69 303.37,476.69 303.37,467.56 294.24,467.56 "/>
    <polygon class="fil1" points="275.97,494.95 285.11,494.95 285.11,485.82 275.97,485.82 "/>
    <polygon class="fil1" points="294.24,494.95 303.37,494.95 303.37,485.82 294.24,485.82 "/>
    <polygon class="fil1" points="367.29,453.86 376.42,453.86 376.42,444.73 367.29,444.73 "/>
    <polygon class="fil1" points="385.56,453.86 394.69,453.86 394.69,444.73 385.56,444.73 "/>
    <path class="fil1" d="M503.81 260.27c-2.28,-13.7 -15.52,-22.38 -29.22,-20.09 -4.11,0.91 -8.22,2.74 -11.41,5.48 -6.85,-7.31 -18.27,-8.22 -25.57,-1.37 -1.37,1.37 -2.74,2.74 -3.66,4.56l-2.28 0c-10.05,0 -18.26,8.22 -18.26,18.27 -8.68,1.36 -14.62,9.13 -13.7,18.26 0.46,1.83 0.91,3.19 1.37,4.57 -7.76,6.84 -8.22,18.26 -1.37,25.56 3.2,3.66 8.22,5.94 13.24,5.94 5.02,0 10.05,-2.28 13.7,-5.94 7.76,3.66 17.35,0.46 21.46,-7.3 7.3,0.45 14.15,-3.2 17.35,-9.13 7.3,0.91 15.07,-2.74 18.26,-9.59 13.7,-2.74 22.37,-15.53 20.09,-29.22zm-11.41 13.24c-2.74,4.11 -7.31,6.39 -11.87,6.85 -1.83,0 -3.2,1.37 -4.11,3.19 -1.83,4.57 -6.85,7.31 -11.42,5.48l-0.46 0c-2.28,-0.91 -5.02,0 -5.93,2.74l0 0.46c-1.37,4.56 -5.94,7.76 -10.5,6.39 -0.46,0 -0.92,0 -1.37,-0.46 -2.29,-0.91 -5.03,0.46 -5.94,2.74 0,0.46 0,0.46 -0.45,0.92 -0.46,3.65 -3.66,6.39 -7.77,5.93 -1.37,0 -3.19,-0.91 -4.11,-1.82 -1.82,-1.83 -4.56,-1.83 -6.39,0 -0.46,0.45 -0.91,0.91 -0.91,1.37 -2.28,4.56 -7.31,6.84 -11.87,4.56 -4.57,-2.28 -6.85,-7.3 -4.57,-11.87 0.92,-2.74 2.28,-4.11 4.57,-5.02 2.28,-0.92 3.19,-3.66 2.28,-5.94 -0.46,-0.46 -0.46,-0.91 -0.91,-1.37 -1.37,-1.37 -1.83,-3.19 -1.83,-5.02 -0.46,-3.65 2.28,-6.85 5.94,-6.85 0.91,0 1.37,0 2.28,0.46 2.28,0.91 5.02,-0.46 5.48,-3.2 0.46,-0.91 0.46,-1.83 0,-3.19 -1.83,-4.57 0.46,-10.05 5.02,-11.88 2.28,-0.91 4.56,-0.91 6.85,0 1.37,0.46 2.74,0.46 3.65,0 1.37,-0.45 2.29,-1.37 2.74,-2.73 1.37,-5.03 6.39,-7.77 10.96,-6.4 2.74,0.92 5.02,2.74 5.94,5.48 0.91,2.28 3.65,3.65 5.93,2.74 0.91,-0.46 1.83,-0.91 2.28,-1.82 5.03,-7.31 15.07,-9.14 22.38,-4.12 7.3,5.03 9.13,15.07 4.11,22.38z"/>
    <path class="fil1" d="M431.21 275.79l9.14 0c0,-2.74 1.82,-4.57 4.56,-4.57l0 -9.13c-7.76,0 -13.7,5.94 -13.7,13.7z"/>
    <path class="fil1" d="M476.87 252.96l0 9.13c2.74,0 4.57,1.83 4.57,4.57l9.13 0c0,-7.76 -5.94,-13.7 -13.7,-13.7z"/>
    <path class="fil1" d="M344.46 243.83c0,2.74 -1.82,4.57 -4.56,4.57 -2.74,0 -4.57,1.82 -4.57,4.56 0,5.02 -4.11,9.13 -9.13,9.13 -2.29,0 -4.57,-0.91 -6.39,-2.28 -1.83,-1.83 -4.57,-1.37 -6.4,0.46 -0.45,0.45 -0.91,1.37 -0.91,2.28 0,2.28 -2.28,4.11 -5.02,4.11 -2.28,0 -4.11,-1.83 -4.11,-4.11 -0.46,-2.28 -2.29,-4.11 -5.02,-4.11 -0.92,0 -1.83,0.46 -2.74,1.37 -3.65,3.2 -9.59,3.2 -12.79,-0.46 -1.37,-1.82 -2.28,-4.1 -2.28,-6.39 0,-2.74 -1.83,-4.56 -4.57,-4.56 -2.74,0 -4.56,-1.83 -4.56,-4.57l-9.13 0c0,5.94 3.65,11.42 9.59,13.24 1.82,8.22 9.12,14.15 17.8,14.15 2.29,0 4.57,-0.45 6.85,-1.36 4.11,6.39 12.79,7.76 18.72,3.65 1.83,-0.91 3.2,-2.29 4.11,-3.65 2.28,0.91 4.56,1.36 6.85,1.36 8.68,0 15.98,-5.93 17.8,-14.15 5.94,-1.82 9.59,-7.3 9.59,-13.24l-9.13 0z"/>
   </g>
  </g>
 </g>
</svg>
