<?xml version="1.0" encoding="UTF-8"?>
<!DOCTYPE svg PUBLIC "-//W3C//DTD SVG 1.1//EN" "http://www.w3.org/Graphics/SVG/1.1/DTD/svg11.dtd">
<!-- Creator: CorelDRAW 2017 -->
<svg xmlns="http://www.w3.org/2000/svg" xml:space="preserve" width="7.6198mm" height="7.6198mm" version="1.1" style="shape-rendering:geometricPrecision; text-rendering:geometricPrecision; image-rendering:optimizeQuality; fill-rule:evenodd; clip-rule:evenodd"
viewBox="0 0 761.98 761.98"
 xmlns:xlink="http://www.w3.org/1999/xlink">
 <defs>
  <style type="text/css">
   <![CDATA[
    .fil0 {fill:#4D4D4D}
    .fil1 {fill:#0BDAA8;fill-rule:nonzero}
   ]]>
  </style>
 </defs>
 <g id="Capa_x0020_1">
  <metadata id="CorelCorpID_0Corel-Layer"/>
  <circle class="fil0" cx="380.99" cy="380.99" r="299.65"/>
  <path class="fil1" d="M404.29 411.48c-0.34,-0.24 -7.64,-5.43 -16.55,-11.76 3.87,-4.78 -0.66,0.81 17,-20.98l13.31 5.15 -13.76 27.59zm-17.48 6.98l-11.67 0 -3.57 -5.37 9.4 -6.69 9.41 6.69 -3.57 5.37zm-5.84 109.17l-17.94 -19.74 13.55 -80.07 8.79 0 13.55 80.07 -17.95 19.74zm-37.08 -143.74l13.3 -5.15 17 20.99c-8.65,6.15 -15.75,11.19 -16.53,11.75l-13.77 -27.59zm37.16 -17.86c6.14,0 12.16,-1.3 17.52,-3.65l0 9.1 -17.6 21.71 -17.62 -21.75 0 -8.76c5.69,2.29 11.77,3.35 17.7,3.35zm-35.64 -43.87l0 -30.75c20.21,1.19 41.4,-4.82 58.52,-15.78 6.78,7.28 10.45,11.1 11.63,12.55 0,3.67 0,29.78 0,33.98 0,19.01 -15.5,34.51 -34.51,34.51 -21.34,0 -35.64,-16.56 -35.64,-34.51zm-18.41 -14.13c0,-5.01 4.15,-9.08 9.05,-10.22l0 20.67c-5.44,-0.89 -9.05,-5.39 -9.05,-10.45zm4.82 -30.33c0,-26.84 21.83,-48.66 48.67,-48.66 26.83,0 48.66,21.82 48.66,48.66l0 11.26c-1.36,-0.41 -2.78,-0.69 -4.22,-0.82 0,-4.51 0.03,-3.64 -14.75,-19.53 -2.71,-2.92 -7.21,-3.53 -10.63,-1.3 -16.31,10.66 -36.21,16.01 -54.57,14.69 -4.03,-0.3 -7.69,2.35 -8.68,6.27 -1.49,0.17 -3.2,0.58 -4.48,1.01l0 -11.58zm98.51 38.29c-1.53,1.31 -3.38,2.16 -5.4,2.49l0 -20.9c5.38,0.87 9.05,5.34 9.05,10.45 0,3.06 -1.33,5.97 -3.65,7.96zm53.69 150.16c2.59,0 4.69,-2.09 4.69,-4.68l0 -31.67c0,-27.68 -23.71,-37.74 -24.71,-38.16 -0.03,-0.01 -0.06,-0.02 -0.09,-0.03l-55.98 -21.68 0 -13.13c8.89,-6.91 15.06,-17.16 16.6,-28.86 4.44,-0.31 8.55,-1.96 11.91,-4.85 4.38,-3.78 6.9,-9.27 6.9,-15.06 0,-4.82 -1.74,-9.41 -4.83,-12.99l0 -17.34c0,-32 -26.03,-58.03 -58.02,-58.03 -32,0 -58.03,26.03 -58.03,58.03l0 17.79c-3.13,3.55 -4.83,7.91 -4.83,12.54 0,5.8 2.52,11.29 6.91,15.06 3.35,2.89 7.46,4.54 11.89,4.85 1.56,11.92 7.91,22.55 17.56,29.55l0 12.44 -55.92 21.68c-0.03,0.01 -0.06,0.02 -0.09,0.03 -1.01,0.42 -24.71,10.48 -24.71,38.16l0 97.54c0,6.59 5.36,11.95 11.95,11.95l44.61 0c2.59,0 4.68,-2.1 4.68,-4.68 0,-2.59 -2.09,-4.69 -4.68,-4.69l-10.07 0 0 -92.2c0,-2.58 -2.1,-4.68 -4.69,-4.68 -2.58,0 -4.68,2.1 -4.68,4.68l0 92.2 -25.17 0c-1.42,0 -2.58,-1.16 -2.58,-2.58l0 -97.54c0,-21.08 17.78,-29.02 18.88,-29.48l33.6 -13.03 14.77 29.59 0 0c1.41,2.83 4.28,4.54 7.34,4.54 2.99,0 4.58,-1.41 6.7,-2.91l3.77 5.68 -14 82.69c0,0.05 -0.01,0.09 -0.02,0.14 -0.34,2.45 0.42,4.97 2.03,6.74l14.69 16.16 -18.72 0c-2.59,0 -4.68,2.1 -4.68,4.69 0,2.58 2.09,4.68 4.68,4.68l125.08 0c6.59,0 11.95,-5.36 11.95,-11.95l0 -44.02c0,-2.59 -2.1,-4.68 -4.68,-4.68 -2.59,0 -4.69,2.09 -4.69,4.68l0 44.02c0,1.42 -1.16,2.58 -2.58,2.58l-25.17 0 0 -92.2c0,-2.58 -2.1,-4.68 -4.68,-4.68 -2.59,0 -4.68,2.1 -4.68,4.68l0 92.2 -50.68 0 14.69 -16.16c1.61,-1.77 2.37,-4.29 2.03,-6.74 -0.01,-0.04 -0.02,-0.09 -0.02,-0.14l-14 -82.69 3.77 -5.68c2.09,1.48 3.69,2.91 6.7,2.91 3.07,0 5.93,-1.72 7.34,-4.54l0 0 14.77 -29.59 33.63 13.02c1.21,0.53 18.88,8.48 18.88,29.49l0 31.67c0,2.59 2.1,4.68 4.68,4.68z"/>
 </g>
</svg>
