<?xml version="1.0" encoding="UTF-8"?>
<!DOCTYPE svg PUBLIC "-//W3C//DTD SVG 1.1//EN" "http://www.w3.org/Graphics/SVG/1.1/DTD/svg11.dtd">
<!-- Creator: CorelDRAW 2017 -->
<svg xmlns="http://www.w3.org/2000/svg" xml:space="preserve" width="7.6198mm" height="7.6198mm" version="1.1" style="shape-rendering:geometricPrecision; text-rendering:geometricPrecision; image-rendering:optimizeQuality; fill-rule:evenodd; clip-rule:evenodd"
viewBox="0 0 761.98 761.98"
 xmlns:xlink="http://www.w3.org/1999/xlink">
 <defs>
  <style type="text/css">
   <![CDATA[
    .fil0 {fill:#0BDAA8;fill-rule:nonzero}
   ]]>
  </style>
 </defs>
 <g id="Capa_x0020_1">
  <metadata id="CorelCorpID_0Corel-Layer"/>
  <g id="_2353491054448">
   <path class="fil0" d="M708.73 577.2l-32.77 0 0 -142.02c0,-14.2 -8.74,-26.22 -21.85,-30.59l0 -34.96c0,-6.56 -4.37,-10.92 -10.92,-10.92l-43.71 0c-6.55,0 -10.92,4.36 -10.92,10.92l0 34.96c-13.11,4.37 -21.85,16.39 -21.85,30.59l0 142.02 -21.85 0 0 -142.02c0,-14.2 -8.73,-26.22 -21.84,-30.59l0 -34.96c0,-6.56 -4.38,-10.92 -10.93,-10.92l-10.92 0 0 -32.77 21.85 0 0 -21.85 -21.85 0 0 -32.78c0,-6.55 -4.38,-10.93 -10.93,-10.93l-87.4 0c-6.55,0 -10.92,4.38 -10.92,10.93l0 32.78 -21.85 0 0 21.85 21.85 0 0 152.94 -109.25 -61.18 -6.55 -69.91 17.47 0 0 -21.85 -18.57 0 -3.28 -43.71 21.85 0 0 -21.85 -24.03 0 -3.28 -43.69 27.31 0 0 -21.85 -29.49 0 -3.28 -33.87c0,-5.46 -5.46,-9.83 -10.92,-9.83l-87.4 0c-5.46,0 -9.83,4.37 -10.92,9.83l-3.29 33.87 -29.49 0 0 21.85 27.32 0 -4.38 43.69 -22.94 0 0 21.85 20.76 0 -4.38 43.71 -16.38 0 0 21.85 14.21 0 -2.19 21.84 -77.57 0c-6.55,0 -10.92,4.37 -10.92,10.93l0 327.74c0,6.55 4.37,10.92 10.92,10.92l174.8 0c6.55,0 10.92,-4.37 10.92,-10.92l0 -327.74c0,-6.56 -4.37,-10.93 -10.92,-10.93l-75.38 0 2.19 -21.84 99.41 0 6.55 76.46 0 284.05c0,6.55 4.37,10.92 10.92,10.92l436.99 0c6.56,0 10.93,-4.37 10.93,-10.92l0 -120.18c0,-6.55 -4.37,-10.92 -10.93,-10.92zm-622.7 120.17l-21.85 0 0 -305.89 21.85 0 0 305.89zm131.09 0l-109.25 0 0 -262.19 109.25 0 0 262.19zm0 -305.89l0 21.85 -109.25 0 0 -21.85 109.25 0zm-44.79 -218.49l67.74 0 2.18 21.85 -71.01 0 1.09 -21.85zm-4.36 43.7l75.38 0 3.27 43.69 -83.03 0 4.38 -43.69zm-10.93 109.25l4.37 -43.71 87.4 0 3.27 43.71 -95.04 0zm453.37 54.62l21.86 0 0 21.85 -21.86 0 0 -21.85zm-21.85 54.62c0,-6.55 4.37,-10.93 10.92,-10.93l43.71 0c6.55,0 10.92,4.38 10.92,10.93l0 10.92 -65.55 0 0 -10.92zm0 32.78l65.55 0 0 109.24 -65.55 0 0 -109.24zm-76.47 -43.71c6.55,0 10.93,4.38 10.93,10.93l0 10.92 -65.55 0 0 -10.92c0,-6.55 4.37,-10.93 10.92,-10.93l43.7 0zm-38.23 99.42l-16.39 -8.74 0 -46.97 65.55 0 0 109.24 -43.7 0 0 -43.7c0,-4.37 -2.19,-7.64 -5.46,-9.83zm27.31 -143.11l0 21.85 -21.85 0 0 -21.85 21.85 0zm-87.4 -98.33l65.55 0 0 21.86 -65.55 0 0 -21.86zm0 43.71l65.55 0 0 32.77 -10.93 0c-6.55,0 -10.92,4.36 -10.92,10.92l0 34.96c-13.11,4.37 -21.86,16.39 -21.86,30.59l0 67.73 -21.84 -12.01 0 -164.96zm-109.25 371.43l-21.85 0 0 -254.54 21.85 12.02 0 242.52zm65.55 -109.25l0 109.25 -43.7 0 0 -230.51 131.1 73.2 0 37.14 -76.48 0c-6.55,0 -10.92,4.37 -10.92,10.92zm284.04 109.25l-262.19 0 0 -54.62 262.19 0 0 54.62zm43.7 0l-21.85 0 0 -54.62 21.85 0 0 54.62zm0 -76.47l-305.89 0 0 -21.85 305.89 0 0 21.85z"/>
   <polygon class="fil0" points="129.72,478.88 151.58,478.88 151.58,457.03 129.72,457.03 "/>
   <polygon class="fil0" points="173.43,478.88 195.28,478.88 195.28,457.03 173.43,457.03 "/>
   <polygon class="fil0" points="129.72,522.58 151.58,522.58 151.58,500.73 129.72,500.73 "/>
   <polygon class="fil0" points="173.43,522.58 195.28,522.58 195.28,500.73 173.43,500.73 "/>
   <polygon class="fil0" points="129.72,566.28 151.58,566.28 151.58,544.43 129.72,544.43 "/>
   <polygon class="fil0" points="173.43,566.28 195.28,566.28 195.28,544.43 173.43,544.43 "/>
   <polygon class="fil0" points="129.72,609.98 151.58,609.98 151.58,588.12 129.72,588.12 "/>
   <polygon class="fil0" points="173.43,609.98 195.28,609.98 195.28,588.12 173.43,588.12 "/>
   <polygon class="fil0" points="129.72,653.68 151.58,653.68 151.58,631.83 129.72,631.83 "/>
   <polygon class="fil0" points="173.43,653.68 195.28,653.68 195.28,631.83 173.43,631.83 "/>
   <polygon class="fil0" points="348.22,555.35 370.07,555.35 370.07,533.5 348.22,533.5 "/>
   <polygon class="fil0" points="391.92,555.35 413.77,555.35 413.77,533.5 391.92,533.5 "/>
   <path class="fil0" d="M674.87 92.15c-5.47,-32.78 -37.14,-53.54 -69.92,-48.07 -9.83,2.18 -19.67,6.55 -27.31,13.1 -16.39,-17.47 -43.7,-19.66 -61.18,-3.27 -3.28,3.27 -6.55,6.56 -8.74,10.92l-5.46 0c-24.04,0 -43.7,19.67 -43.7,43.7 -20.76,3.28 -34.96,21.86 -32.77,43.7 1.09,4.37 2.18,7.65 3.27,10.93 -18.57,16.38 -19.66,43.69 -3.27,61.18 7.64,8.73 19.66,14.2 31.68,14.2 12.01,0 24.03,-5.47 32.77,-14.2 18.57,8.73 41.51,1.09 51.35,-17.49 17.47,1.1 33.86,-7.65 41.51,-21.84 17.48,2.18 36.06,-6.56 43.7,-22.94 32.78,-6.56 53.53,-37.15 48.07,-69.92zm-27.32 31.67c-6.55,9.84 -17.47,15.3 -28.39,16.39 -4.38,0 -7.65,3.29 -9.84,7.65 -4.37,10.92 -16.39,17.48 -27.31,13.11l-1.09 0c-5.47,-2.19 -12.02,0 -14.21,6.56l0 1.09c-3.27,10.92 -14.2,18.57 -25.12,15.3 -1.1,0 -2.19,0 -3.28,-1.1 -5.46,-2.19 -12.02,1.1 -14.21,6.56 0,1.09 0,1.09 -1.08,2.18 -1.1,8.74 -8.74,15.29 -18.58,14.2 -3.27,0 -7.65,-2.18 -9.83,-4.37 -4.37,-4.37 -10.93,-4.37 -15.29,0 -1.1,1.1 -2.19,2.19 -2.19,3.28 -5.46,10.93 -17.48,16.39 -28.41,10.93 -10.92,-5.47 -16.38,-17.48 -10.92,-28.41 2.19,-6.56 5.46,-9.83 10.92,-12.02 5.47,-2.18 7.65,-8.74 5.47,-14.2 -1.09,-1.09 -1.09,-2.19 -2.19,-3.27 -3.28,-3.28 -4.36,-7.65 -4.36,-12.03 -1.1,-8.73 5.46,-16.38 14.2,-16.38 2.18,0 3.27,0 5.46,1.1 5.46,2.18 12.02,-1.1 13.11,-7.65 1.09,-2.19 1.09,-4.38 0,-7.65 -4.37,-10.93 1.09,-24.04 12.02,-28.41 5.46,-2.18 10.92,-2.18 16.38,0 3.28,1.1 6.56,1.1 8.74,0 3.28,-1.09 5.47,-3.28 6.55,-6.55 3.28,-12.02 15.3,-18.57 26.23,-15.3 6.55,2.19 12.02,6.56 14.2,13.11 2.18,5.46 8.74,8.74 14.2,6.56 2.19,-1.1 4.37,-2.18 5.47,-4.37 12.01,-17.48 36.04,-21.85 53.53,-9.84 17.47,12.03 21.85,36.06 9.82,53.53z"/>
   <path class="fil0" d="M501.17 129.29l21.85 0c0,-6.55 4.36,-10.93 10.92,-10.93l0 -21.85c-18.57,0 -32.77,14.21 -32.77,32.78z"/>
   <path class="fil0" d="M610.41 74.67l0 21.84c6.56,0 10.93,4.38 10.93,10.93l21.85 0c0,-18.57 -14.21,-32.77 -32.78,-32.77z"/>
   <path class="fil0" d="M293.59 52.82c0,6.55 -4.36,10.92 -10.92,10.92 -6.55,0 -10.93,4.37 -10.93,10.93 0,12.01 -9.82,21.84 -21.84,21.84 -5.47,0 -10.93,-2.18 -15.3,-5.46 -4.37,-4.37 -10.93,-3.27 -15.29,1.1 -1.1,1.09 -2.19,3.27 -2.19,5.46 0,5.46 -5.46,9.83 -12.02,9.83 -5.46,0 -9.82,-4.37 -9.82,-9.83 -1.1,-5.46 -5.47,-9.83 -12.02,-9.83 -2.19,0 -4.37,1.09 -6.56,3.27 -8.73,7.65 -22.94,7.65 -30.58,-1.09 -3.29,-4.37 -5.47,-9.83 -5.47,-15.29 0,-6.56 -4.37,-10.93 -10.93,-10.93 -6.55,0 -10.92,-4.37 -10.92,-10.92l-21.85 0c0,14.2 8.74,27.31 22.95,31.68 4.36,19.66 21.84,33.86 42.6,33.86 5.47,0 10.93,-1.09 16.39,-3.27 9.83,15.3 30.59,18.57 44.78,8.73 4.38,-2.18 7.65,-5.46 9.84,-8.73 5.46,2.18 10.92,3.27 16.39,3.27 20.76,0 38.23,-14.2 42.6,-33.86 14.2,-4.37 22.95,-17.48 22.95,-31.68l-21.86 0z"/>
  </g>
 </g>
</svg>
