<?xml version="1.0" encoding="UTF-8"?>
<!DOCTYPE svg PUBLIC "-//W3C//DTD SVG 1.1//EN" "http://www.w3.org/Graphics/SVG/1.1/DTD/svg11.dtd">
<!-- Creator: CorelDRAW 2017 -->
<svg xmlns="http://www.w3.org/2000/svg" xml:space="preserve" width="2.1166mm" height="2.1166mm" version="1.1" style="shape-rendering:geometricPrecision; text-rendering:geometricPrecision; image-rendering:optimizeQuality; fill-rule:evenodd; clip-rule:evenodd"
viewBox="0 0 211.66 211.66"
 xmlns:xlink="http://www.w3.org/1999/xlink">
 <defs>
  <style type="text/css">
   <![CDATA[
    .fil0 {fill:#999999;fill-rule:nonzero}
   ]]>
  </style>
 </defs>
 <g id="Capa_x0020_1">
  <metadata id="CorelCorpID_0Corel-Layer"/>
  <path class="fil0" d="M190.25 171.03l-36.42 -36.42c8.78,-12.68 13.17,-26.8 13.17,-42.38 0,-10.12 -1.97,-19.81 -5.9,-29.05 -3.93,-9.23 -9.24,-17.2 -15.93,-23.89 -6.69,-6.69 -14.65,-12 -23.89,-15.93 -9.24,-3.93 -18.92,-5.89 -29.05,-5.89 -10.12,0 -19.81,1.96 -29.05,5.89 -9.23,3.93 -17.2,9.24 -23.89,15.93 -6.69,6.69 -12,14.66 -15.93,23.89 -3.93,9.24 -5.89,18.93 -5.89,29.05 0,10.13 1.96,19.8 5.89,29.04 3.93,9.24 9.24,17.21 15.93,23.9 6.69,6.69 14.66,12 23.89,15.93 9.24,3.93 18.93,5.9 29.05,5.9 15.57,0 29.7,-4.4 42.38,-13.18l36.42 36.32c2.55,2.69 5.73,4.04 9.55,4.04 3.69,0 6.88,-1.35 9.56,-4.04 2.7,-2.69 4.04,-5.88 4.04,-9.56 0,-3.74 -1.31,-6.93 -3.93,-9.55zm-64.41 -45.19c-9.31,9.31 -20.51,13.97 -33.61,13.97 -13.1,0 -24.3,-4.66 -33.61,-13.97 -9.31,-9.31 -13.96,-20.51 -13.96,-33.61 0,-13.1 4.65,-24.31 13.96,-33.61 9.31,-9.31 20.51,-13.97 33.61,-13.97 13.1,0 24.3,4.66 33.61,13.97 9.31,9.3 13.97,20.51 13.97,33.61 0,13.1 -4.66,24.3 -13.97,33.61z"/>
 </g>
</svg>
