<?xml version="1.0" encoding="UTF-8"?>
<!DOCTYPE svg PUBLIC "-//W3C//DTD SVG 1.1//EN" "http://www.w3.org/Graphics/SVG/1.1/DTD/svg11.dtd">
<!-- Creator: CorelDRAW 2017 -->
<svg xmlns="http://www.w3.org/2000/svg" xml:space="preserve" width="3.3866mm" height="3.3866mm" version="1.1" style="shape-rendering:geometricPrecision; text-rendering:geometricPrecision; image-rendering:optimizeQuality; fill-rule:evenodd; clip-rule:evenodd"
viewBox="0 0 338.66 338.66"
 xmlns:xlink="http://www.w3.org/1999/xlink">
 <defs>
  <style type="text/css">
   <![CDATA[
    .fil0 {fill:#fff;fill-rule:nonzero}
   ]]>
  </style>
 </defs>
 <g id="Capa_x0020_1">
  <metadata id="CorelCorpID_0Corel-Layer"/>
  <g id="_2317284377536">
   <path class="fil0" d="M320.03 290.91l-223.87 0c-9.22,0 -16.7,-7.48 -16.7,-16.72 0,-9.22 7.48,-16.7 16.7,-16.7l223.87 0c9.22,0 16.7,7.48 16.7,16.7 0,9.24 -7.48,16.72 -16.7,16.72z"/>
   <path class="fil0" d="M320.03 186.04l-223.87 0c-9.22,0 -16.7,-7.48 -16.7,-16.7 0,-9.24 7.48,-16.72 16.7,-16.72l223.87 0c9.22,0 16.7,7.48 16.7,16.72 0,9.22 -7.48,16.7 -16.7,16.7z"/>
   <path class="fil0" d="M320.03 81.19l-223.87 0c-9.22,0 -16.7,-7.5 -16.7,-16.72 0,-9.21 7.48,-16.69 16.7,-16.69l223.87 0c9.22,0 16.7,7.48 16.7,16.69 0,9.22 -7.48,16.72 -16.7,16.72z"/>
   <path class="fil0" d="M46.8 65.78c0,12.37 -10.03,22.43 -22.42,22.43 -12.41,0 -22.44,-10.06 -22.44,-22.43 0,-12.4 10.03,-22.46 22.44,-22.46 12.39,0 22.42,10.06 22.42,22.46z"/>
   <path class="fil0" d="M46.8 169.34c0,12.38 -10.03,22.43 -22.42,22.43 -12.41,0 -22.44,-10.05 -22.44,-22.43 0,-12.39 10.03,-22.43 22.44,-22.43 12.39,0 22.42,10.04 22.42,22.43z"/>
   <path class="fil0" d="M46.8 272.91c0,12.37 -10.03,22.43 -22.42,22.43 -12.41,0 -22.44,-10.06 -22.44,-22.43 0,-12.4 10.03,-22.43 22.44,-22.43 12.39,0 22.42,10.03 22.42,22.43z"/>
  </g>
 </g>
</svg>
