<?xml version="1.0" encoding="UTF-8"?>
<!DOCTYPE svg PUBLIC "-//W3C//DTD SVG 1.1//EN" "http://www.w3.org/Graphics/SVG/1.1/DTD/svg11.dtd">
<!-- Creator: CorelDRAW 2017 -->
<svg xmlns="http://www.w3.org/2000/svg" xml:space="preserve" width="3.3866mm" height="3.3866mm" version="1.1" style="shape-rendering:geometricPrecision; text-rendering:geometricPrecision; image-rendering:optimizeQuality; fill-rule:evenodd; clip-rule:evenodd"
viewBox="0 0 338.66 338.66"
 xmlns:xlink="http://www.w3.org/1999/xlink">
 <defs>
  <style type="text/css">
   <![CDATA[
    .fil0 {fill:#fff;fill-rule:nonzero}
   ]]>
  </style>
 </defs>
 <g id="Capa_x0020_1">
  <metadata id="CorelCorpID_0Corel-Layer"/>
  <g id="_2353504936656">
   <path class="fil0" d="M136.31 275.36c0,0.07 0,0.14 0,0.22 0,18.24 14.79,33.03 33.03,33.03 18.24,0 33.02,-14.79 33.02,-33.03 0,-0.08 0,-0.15 0,-0.22l-66.05 0z"/>
   <path class="fil0" d="M274.78 234.08l-29.72 -43.67 0 -54.47c0,-36.74 -26.17,-67.36 -60.87,-74.26l0 -16.78c-0.01,-8.2 -6.65,-14.85 -14.85,-14.85 -8.21,0 -14.85,6.65 -14.85,14.85l0 16.78c-34.71,6.9 -60.88,37.52 -60.88,74.26l0 54.48 -29.72 43.66c-3.13,4.6 -3.46,10.55 -0.86,15.47 2.6,4.92 7.71,7.99 13.27,7.99l186.07 0c5.56,0 10.67,-3.07 13.27,-7.99 2.6,-4.92 2.27,-10.87 -0.86,-15.47z"/>
  </g>
 </g>
</svg>
